# xmcd CD database file
#
# Track frame offsets:
#	150
#	19848
#	31384
#	45336
#	63158
#	81428
#	91620
#	106975
#	121173
#	136862
#	150082
#	161002
#
# Disc length: 2358 seconds
#
# Revision: 0
# Processed by: cddbd v1.5.2PL0 Copyright (c) Steve Scherf et al.
# Submitted via: CDex 1.70beta2
#
DISCID=8009340c
DTITLE=Stu (Small Town Urbans) - Gumbo
DYEAR=2003
DGENRE=Country
TTITLE0=Tell me about it
TTITLE1=You never can tell
TTITLE2=Little John
TTITLE3=I don't even know your name
TTITLE4=Mexico city blues
TTITLE5=Don't call me
TTITLE6=Rad Gumbo
TTITLE7=Mercedes Benz
TTITLE8=Tennesee plates
TTITLE9=My little sister
TTITLE10=On a saturday night
TTITLE11=Little Joe from Chicago
EXTD=YEAR: 2003
EXTT0=
EXTT1=
EXTT2=
EXTT3=
EXTT4=
EXTT5=
EXTT6=
EXTT7=
EXTT8=
EXTT9=
EXTT10=
EXTT11=
PLAYORDER=
